<svg width="80" height="80" viewBox="0 0 80 80" fill="none" xmlns="http://www.w3.org/2000/svg">
<path d="M39.9989 0C17.9085 0 0.000244141 17.9088 0.000244141 39.9992C0.000244141 62.0891 17.9085 79.9992 39.9989 79.9992C62.0893 79.9992 79.9989 62.0891 79.9989 39.9992C79.9989 17.9088 62.0893 0 39.9989 0Z" fill="white" fill-opacity="0.0932971"/>
<path d="M63.9648 52.3795H63.9624C63.9624 54.7469 62.0437 56.6653 59.6765 56.6653H20.3229C17.9554 56.6653 16.037 54.7467 16.037 52.3795V29.7488C16.037 29.4984 16.0626 29.2549 16.1042 29.0157L38.7197 43.1179C38.7474 43.1352 38.777 43.1469 38.8056 43.1629C38.8354 43.1795 38.8658 43.1955 38.8962 43.2107C39.056 43.2931 39.2205 43.3595 39.3888 43.4029C39.4061 43.4077 39.4234 43.4099 39.4408 43.4139C39.6253 43.4573 39.8122 43.4845 39.9989 43.4845H40.0002C40.0016 43.4845 40.0029 43.4845 40.0029 43.4845C40.1896 43.4845 40.3765 43.4581 40.561 43.4139C40.5784 43.4096 40.5957 43.4077 40.613 43.4029C40.781 43.3595 40.945 43.2931 41.1056 43.2107C41.136 43.1955 41.1664 43.1795 41.1962 43.1629C41.2245 43.1469 41.2544 43.1352 41.2821 43.1179L63.8976 29.0157C63.9392 29.2549 63.9648 29.4979 63.9648 29.7488V52.3795Z" fill="white"/>
<path d="M39.9997 14.0496L63.6699 28.8096H16.3296L39.9997 14.0496Z" fill="#0BB1A1"/>
</svg>
