<svg width="100" height="100" viewBox="0 0 100 100" fill="none" xmlns="http://www.w3.org/2000/svg">
<path d="M49.9983 0C22.3853 0 0 22.387 0 49.999C0 77.611 22.3853 100 49.9983 100C77.6113 100 99.9993 77.6123 99.9993 49.999C99.9993 22.3857 77.6113 0 49.9983 0Z" fill="#DDE1EB"/>
<path fill-rule="evenodd" clip-rule="evenodd" d="M49.0854 53.5149C48.7586 53.7691 48.368 53.8963 47.9686 53.8963C47.578 53.8963 47.1786 53.7691 46.8517 53.5149L35.3191 44.5343C34.5291 43.9166 34.3837 42.7817 35.0014 41.9917C35.6189 41.1926 36.7631 41.0563 37.5531 41.6737L47.9686 49.7737L57.3489 42.482C55.7417 40.23 54.9334 37.5783 54.9334 34.9269H33.4486C30.4426 34.9266 28 37.3786 28 40.3751V64.666C28 67.6626 30.4426 70.1146 33.4486 70.1146H62.5069C65.5034 70.1146 67.9551 67.6629 67.9551 64.666V47.9394C65.0946 47.9394 62.2251 47.004 59.8643 45.1243L49.0854 53.5149Z" fill="white"/>
<path fill-rule="evenodd" clip-rule="evenodd" d="M74.9017 27.9709C71.0606 24.1389 64.8403 24.1389 60.9992 27.9709C59.074 29.896 58.1206 32.4114 58.1206 34.9269C58.1206 37.4423 59.074 39.9574 60.9992 41.8829C62.9243 43.7989 65.4306 44.7523 67.9549 44.7523C70.4612 44.7523 72.9855 43.7989 74.9017 41.8829C78.7429 38.0414 78.7429 31.812 74.9017 27.9709Z" fill="#0B78FF"/>
</svg>
