<svg width="20" height="20" viewBox="0 0 20 20" fill="none" xmlns="http://www.w3.org/2000/svg">
<path fill-rule="evenodd" clip-rule="evenodd" d="M17.2959 0H2.69377C1.20614 0 0.00012207 1.20597 0.00012207 2.69364V17.2959C0.00012207 18.7836 1.20609 19.9895 2.69377 19.9895H9.89548L9.90775 12.8464H8.05196C7.81078 12.8464 7.61504 12.6513 7.61411 12.4102L7.60521 10.1076C7.60428 9.86514 7.80061 9.66807 8.04311 9.66807H9.89553V7.44323C9.89553 4.86132 11.4724 3.45545 13.7756 3.45545H15.6656C15.9074 3.45545 16.1035 3.65149 16.1035 3.89335V5.83487C16.1035 6.07663 15.9076 6.27262 15.6658 6.27276L14.506 6.2733C13.2534 6.2733 13.0109 6.86851 13.0109 7.742V9.66812H15.7632C16.0255 9.66812 16.2289 9.89711 16.198 10.1576L15.9251 12.4601C15.899 12.6804 15.7122 12.8465 15.4903 12.8465H13.0232L13.0109 19.9896H17.296C18.7836 19.9896 19.9896 18.7837 19.9896 17.296V2.69364C19.9896 1.20597 18.7836 0 17.2959 0Z" fill="#475993"/>
</svg>
