<svg width="22" height="22" viewBox="0 0 22 22" fill="none" xmlns="http://www.w3.org/2000/svg">
<path fill-rule="evenodd" clip-rule="evenodd" d="M13.2649 10.798C13.457 10.6059 13.7085 10.5095 13.9603 10.5095C14.2125 10.5095 14.4636 10.6059 14.6557 10.7977C15.04 11.1813 15.04 11.8043 14.6557 12.1882L11.719 15.1249C11.5269 15.317 11.2757 15.4125 11.0239 15.4125H11.0167H11.0092C10.758 15.4125 10.5062 15.317 10.3141 15.1249L7.37738 12.1882C6.99311 11.8043 6.99311 11.1813 7.37738 10.7977C7.56951 10.6056 7.82131 10.5092 8.07279 10.5092C8.32426 10.5092 8.57607 10.6056 8.7682 10.7977L10.0662 12.0954V7.7577V5.79049V2.02197C10.0662 1.47902 10.5066 1.03836 11.0498 1.03836C11.5931 1.03836 12.0334 1.47902 12.0334 2.02197V5.79082V7.75803V12.0292L13.2649 10.798ZM13.9344 6.39803H17.2495C19.3348 6.39803 20.9679 7.67377 20.9682 9.30295V18.0259C20.9682 19.6541 19.3344 20.9298 17.2502 20.9298H4.71803C2.63311 20.9298 1 19.6548 1 18.0259V9.30295C1 7.67443 2.63311 6.39869 4.71803 6.39869H8.03279V8.3659H4.71803C3.73213 8.3659 2.96721 8.86951 2.96721 9.30295V18.0256C2.96721 18.4587 3.73213 18.9626 4.71803 18.9626H17.2495C18.2357 18.9626 19.0007 18.4587 19.0007 18.0256V9.30197C19.0007 8.86852 18.2357 8.36525 17.2495 8.36525H13.9344V6.39803Z" fill="black"/>
<path d="M13.2649 10.798L13.3356 10.8688L13.3356 10.8687L13.2649 10.798ZM14.6557 10.7977L14.7264 10.7269L14.6557 10.7977ZM14.6557 12.1882L14.5851 12.1175L14.585 12.1175L14.6557 12.1882ZM11.719 15.1249L11.7897 15.1956H11.7897L11.719 15.1249ZM10.3141 15.1249L10.3848 15.0542L10.3141 15.1249ZM7.37738 12.1882L7.44809 12.1175L7.44806 12.1175L7.37738 12.1882ZM7.37738 10.7977L7.44803 10.8685L7.44809 10.8684L7.37738 10.7977ZM8.7682 10.7977L8.69749 10.8684L8.6975 10.8684L8.7682 10.7977ZM10.0662 12.0954L9.99553 12.1661L10.1662 12.3368V12.0954H10.0662ZM12.0334 12.0292H11.9334V12.2706L12.1041 12.0999L12.0334 12.0292ZM13.9344 6.39803V6.29803H13.8344V6.39803H13.9344ZM20.9682 9.30295H21.0682V9.30293L20.9682 9.30295ZM8.03279 6.39869H8.13279V6.29869H8.03279V6.39869ZM8.03279 8.3659V8.4659H8.13279V8.3659H8.03279ZM13.9344 8.36525H13.8344V8.46525H13.9344V8.36525ZM13.9603 10.4095C13.683 10.4095 13.4058 10.5158 13.1942 10.7273L13.3356 10.8687C13.5083 10.696 13.7341 10.6095 13.9603 10.6095V10.4095ZM14.7264 10.7269C14.5149 10.5158 14.238 10.4095 13.9603 10.4095V10.6095C14.1869 10.6095 14.4123 10.696 14.5851 10.8685L14.7264 10.7269ZM14.7264 12.2589C15.1498 11.836 15.1498 11.1496 14.7264 10.7269L14.5851 10.8685C14.9302 11.213 14.9302 11.7726 14.5851 12.1175L14.7264 12.2589ZM11.7897 15.1956L14.7264 12.2589L14.585 12.1175L11.6483 15.0542L11.7897 15.1956ZM11.0239 15.5125C11.3011 15.5125 11.578 15.4073 11.7897 15.1956L11.6483 15.0542C11.4757 15.2268 11.2504 15.3125 11.0239 15.3125V15.5125ZM11.0167 15.5125H11.0239V15.3125H11.0167V15.5125ZM11.0092 15.5125H11.0167V15.3125H11.0092V15.5125ZM10.2434 15.1956C10.4551 15.4074 10.7327 15.5125 11.0092 15.5125V15.3125C10.7833 15.3125 10.5573 15.2267 10.3848 15.0542L10.2434 15.1956ZM7.30667 12.2589L10.2434 15.1956L10.3848 15.0542L7.44809 12.1175L7.30667 12.2589ZM7.30673 10.7269C6.88332 11.1496 6.88336 11.836 7.3067 12.2589L7.44806 12.1175C7.10287 11.7726 7.10291 11.213 7.44803 10.8685L7.30673 10.7269ZM8.07279 10.4092C7.79577 10.4092 7.51823 10.5154 7.30667 10.727L7.44809 10.8684C7.62079 10.6957 7.84686 10.6092 8.07279 10.6092V10.4092ZM8.83891 10.727C8.62734 10.5154 8.34981 10.4092 8.07279 10.4092V10.6092C8.29872 10.6092 8.52479 10.6957 8.69749 10.8684L8.83891 10.727ZM10.1369 12.0247L8.8389 10.727L8.6975 10.8684L9.99553 12.1661L10.1369 12.0247ZM9.96623 7.7577V12.0954H10.1662V7.7577H9.96623ZM9.96623 5.79049V7.7577H10.1662V5.79049H9.96623ZM9.96623 2.02197V5.79049H10.1662V2.02197H9.96623ZM11.0498 0.938361C10.4513 0.938361 9.96623 1.42381 9.96623 2.02197H10.1662C10.1662 1.53422 10.5618 1.13836 11.0498 1.13836V0.938361ZM12.1334 2.02197C12.1334 1.42381 11.6484 0.938361 11.0498 0.938361V1.13836C11.5379 1.13836 11.9334 1.53422 11.9334 2.02197H12.1334ZM12.1334 5.79082V2.02197H11.9334V5.79082H12.1334ZM12.1334 7.75803V5.79082H11.9334V7.75803H12.1334ZM12.1334 12.0292V7.75803H11.9334V12.0292H12.1334ZM13.1942 10.7273L11.9627 11.9585L12.1041 12.0999L13.3356 10.8688L13.1942 10.7273ZM17.2495 6.29803H13.9344V6.49803H17.2495V6.29803ZM21.0682 9.30293C21.0679 7.59696 19.3656 6.29803 17.2495 6.29803V6.49803C19.3039 6.49803 20.8679 7.75058 20.8682 9.30297L21.0682 9.30293ZM21.0682 18.0259V9.30295H20.8682V18.0259H21.0682ZM17.2502 21.0298C19.3652 21.0298 21.0682 19.7309 21.0682 18.0259H20.8682C20.8682 19.5773 19.3036 20.8298 17.2502 20.8298V21.0298ZM4.71803 21.0298H17.2502V20.8298H4.71803V21.0298ZM0.9 18.0259C0.9 19.7316 2.60231 21.0298 4.71803 21.0298V20.8298C2.66392 20.8298 1.1 19.5779 1.1 18.0259H0.9ZM0.9 9.30295V18.0259H1.1V9.30295H0.9ZM4.71803 6.29869C2.60229 6.29869 0.9 7.59761 0.9 9.30295H1.1C1.1 7.75124 2.66394 6.49869 4.71803 6.49869V6.29869ZM8.03279 6.29869H4.71803V6.49869H8.03279V6.29869ZM8.13279 8.3659V6.39869H7.93279V8.3659H8.13279ZM4.71803 8.4659H8.03279V8.2659H4.71803V8.4659ZM3.06721 9.30295C3.06721 9.22434 3.10217 9.13307 3.18002 9.0364C3.25752 8.94017 3.37339 8.84411 3.5226 8.75866C3.8209 8.58784 4.24128 8.4659 4.71803 8.4659V8.2659C4.20888 8.2659 3.75385 8.39577 3.42322 8.58511C3.25796 8.67974 3.12098 8.79086 3.02425 8.91095C2.92788 9.03062 2.86721 9.16484 2.86721 9.30295H3.06721ZM3.06721 18.0256V9.30295H2.86721V18.0256H3.06721ZM4.71803 18.8626C4.24129 18.8626 3.82092 18.7406 3.52261 18.5697C3.37339 18.4843 3.25752 18.3882 3.18001 18.292C3.10215 18.1953 3.06721 18.1041 3.06721 18.0256H2.86721C2.86721 18.1636 2.92789 18.2978 3.02426 18.4174C3.12098 18.5375 3.25796 18.6486 3.42321 18.7433C3.75384 18.9327 4.20887 19.0626 4.71803 19.0626V18.8626ZM17.2495 18.8626H4.71803V19.0626H17.2495V18.8626ZM18.9007 18.0256C18.9007 18.1041 18.8657 18.1953 18.7879 18.292C18.7103 18.3882 18.5945 18.4843 18.4452 18.5697C18.1469 18.7406 17.7264 18.8626 17.2495 18.8626V19.0626C17.7588 19.0626 18.2139 18.9327 18.5446 18.7433C18.7099 18.6486 18.8469 18.5375 18.9436 18.4174C19.04 18.2978 19.1007 18.1636 19.1007 18.0256H18.9007ZM18.9007 9.30197V18.0256H19.1007V9.30197H18.9007ZM17.2495 8.46525C17.7264 8.46525 18.1469 8.58711 18.4452 8.75786C18.5945 8.84327 18.7104 8.93928 18.7879 9.03548C18.8657 9.13211 18.9007 9.22336 18.9007 9.30197H19.1007C19.1007 9.16386 19.04 9.02965 18.9436 8.91001C18.8469 8.78994 18.7099 8.67886 18.5446 8.58427C18.2139 8.39502 17.7588 8.26525 17.2495 8.26525V8.46525ZM13.9344 8.46525H17.2495V8.26525H13.9344V8.46525ZM13.8344 6.39803V8.36525H14.0344V6.39803H13.8344Z" fill="black"/>
</svg>
