<svg width="90" height="90" viewBox="0 0 90 90" fill="none" xmlns="http://www.w3.org/2000/svg">
<defs>
<filter id="filter0_d" x="7.48462" y="9.25" width="75.0309" height="75.5" filterUnits="userSpaceOnUse" color-interpolation-filters="sRGB">
<feFlood flood-opacity="0" result="BackgroundImageFix"/>
<feColorMatrix in="SourceAlpha" type="matrix" values="0 0 0 0 0 0 0 0 0 0 0 0 0 0 0 0 0 0 127 0"/>
<feOffset dy="2"/>
<feGaussianBlur stdDeviation="2"/>
<feColorMatrix type="matrix" values="0 0 0 0 0 0 0 0 0 0 0 0 0 0 0 0 0 0 0.0544044 0"/>
<feBlend mode="normal" in2="BackgroundImageFix" result="effect1_dropShadow"/>
<feBlend mode="normal" in="SourceGraphic" in2="effect1_dropShadow" result="shape"/>
</filter>
<linearGradient id="paint0_linear" x1="150.696" y1="15.666" x2="38.5972" y2="-43.0977" gradientUnits="userSpaceOnUse">
<stop stop-color="#0B78FF"/>
<stop offset="1" stop-color="#21CABA"/>
</linearGradient>
</defs>
<path fill-rule="evenodd" clip-rule="evenodd" d="M45 90C69.8528 90 90 69.8528 90 45C90 20.1472 69.8528 0 45 0C20.1472 0 0 20.1472 0 45C0 69.8528 20.1472 90 45 90Z" fill="url(#paint0_linear)"/>
<g filter="url(#filter0_d)">
<path fill-rule="evenodd" clip-rule="evenodd" d="M78.5155 41H72.0001V49H78.5155C76.5371 65.7543 62.2863 78.75 45.0001 78.75C27.7139 78.75 13.463 65.7543 11.4846 49H17.0001V41H11.4846C13.463 24.2457 27.7139 11.25 45.0001 11.25C62.2863 11.25 76.5371 24.2457 78.5155 41Z" fill="white"/>
</g>
<mask id="mask0" mask-type="alpha" maskUnits="userSpaceOnUse" x="11" y="11" width="68" height="68">
<path fill-rule="evenodd" clip-rule="evenodd" d="M78.5155 41H72.0001V49H78.5155C76.5371 65.7543 62.2863 78.75 45.0001 78.75C27.7139 78.75 13.463 65.7543 11.4846 49H17.0001V41H11.4846C13.463 24.2457 27.7139 11.25 45.0001 11.25C62.2863 11.25 76.5371 24.2457 78.5155 41Z" fill="white"/>
</mask>
<g mask="url(#mask0)">
<path d="M42.5 65.5001V47.5001H29L47 25V43H60.5L42.5 65.5001Z" fill="#20C7BD"/>
<mask id="mask1" mask-type="alpha" maskUnits="userSpaceOnUse" x="29" y="25" width="32" height="41">
<path d="M42.5 65.5001V47.5001H29L47 25V43H60.5L42.5 65.5001Z" fill="white"/>
</mask>
<g mask="url(#mask1)">
<!-- <path fill-rule="evenodd" clip-rule="evenodd" d="M78.9478 6.26482L-5.98533 97.6148L-53 51.9398L33.7942 -37L78.9478 6.26482Z" fill="#0B78FF"/> -->
</g>
</g>
</svg>
