<svg width="32" height="33" viewBox="0 0 32 33" fill="none" xmlns="http://www.w3.org/2000/svg">
<defs>
<filter id="filter0_d" x="0.75" y="1.75" width="30.5" height="30.5" filterUnits="userSpaceOnUse" color-interpolation-filters="sRGB">
<feFlood flood-opacity="0" result="BackgroundImageFix"/>
<feColorMatrix in="SourceAlpha" type="matrix" values="0 0 0 0 0 0 0 0 0 0 0 0 0 0 0 0 0 0 127 0"/>
<feOffset dy="2"/>
<feGaussianBlur stdDeviation="2"/>
<feColorMatrix type="matrix" values="0 0 0 0 0 0 0 0 0 0 0 0 0 0 0 0 0 0 0.0544044 0"/>
<feBlend mode="normal" in2="BackgroundImageFix" result="effect1_dropShadow"/>
<feBlend mode="normal" in="SourceGraphic" in2="effect1_dropShadow" result="shape"/>
</filter>
</defs>
<path fill-rule="evenodd" clip-rule="evenodd" d="M16 30C24.2843 30 31 23.2843 31 15C31 6.71573 24.2843 0 16 0C7.71573 0 1 6.71573 1 15C1 23.2843 7.71573 30 16 30Z" fill="#DDE1EB"/>
<g filter="url(#filter0_d)">
<path fill-rule="evenodd" clip-rule="evenodd" d="M16 26.25C22.2132 26.25 27.25 21.2132 27.25 15C27.25 8.7868 22.2132 3.75 16 3.75C9.7868 3.75 4.75 8.7868 4.75 15C4.75 21.2132 9.7868 26.25 16 26.25Z" fill="white"/>
</g>
<mask id="mask0" mask-type="alpha" maskUnits="userSpaceOnUse" x="4" y="3" width="24" height="24">
<path fill-rule="evenodd" clip-rule="evenodd" d="M16 26.25C22.2132 26.25 27.25 21.2132 27.25 15C27.25 8.7868 22.2132 3.75 16 3.75C9.7868 3.75 4.75 8.7868 4.75 15C4.75 21.2132 9.7868 26.25 16 26.25Z" fill="white"/>
</mask>
<g mask="url(#mask0)">
<path d="M15.25 21.75V15.75H10.75L16.75 8.25V14.25H21.25L15.25 21.75Z" fill="#8D93A9"/>
<mask id="mask1" mask-type="alpha" maskUnits="userSpaceOnUse" x="10" y="8" width="12" height="14">
<path d="M15.25 21.75V15.75H10.75L16.75 8.25V14.25H21.25L15.25 21.75Z" fill="white"/>
</mask>
<g mask="url(#mask1)">
<!-- <path fill-rule="evenodd" clip-rule="evenodd" d="M27.9565 1.95L-0.354566 32.4L-16.0261 17.175L12.9053 -12.4716L27.9565 1.95Z" fill="#5E657E"/> -->
</g>
</g>
</svg>
